<mxfile host="65bd71144e">
    <diagram id="Loun4-QCLjBzM-nZ4Kqa" name="Página-1">
        <mxGraphModel dx="716" dy="648" grid="1" gridSize="10" guides="1" tooltips="1" connect="1" arrows="1" fold="1" page="1" pageScale="1" pageWidth="827" pageHeight="1169" math="0" shadow="0">
            <root>
                <mxCell id="0"/>
                <mxCell id="1" parent="0"/>
                <mxCell id="4" value="MÓDULO INCIDENCIAS" style="swimlane;startSize=23;fontFamily=Helvetica;fontStyle=0" parent="1" vertex="1">
                    <mxGeometry x="269" y="12" width="160" height="134" as="geometry">
                        <mxRectangle x="220" y="6" width="170" height="23" as="alternateBounds"/>
                    </mxGeometry>
                </mxCell>
                <mxCell id="QgEqirpfORXwnhPlDMqE-285" value="Buscar Incidencia" style="ellipse;whiteSpace=wrap;html=1;" parent="4" vertex="1">
                    <mxGeometry x="23" y="79" width="120" height="20" as="geometry"/>
                </mxCell>
                <mxCell id="11" value="MÓDULO SOLICITUDES" style="swimlane;startSize=23;fontStyle=0;fontFamily=Helvetica;" parent="1" vertex="1">
                    <mxGeometry x="269" y="161" width="161" height="327" as="geometry">
                        <mxRectangle x="220" y="199" width="170" height="23" as="alternateBounds"/>
                    </mxGeometry>
                </mxCell>
                <mxCell id="373" value="Abrir Incidencia&amp;nbsp;" style="ellipse;whiteSpace=wrap;html=1;" parent="11" vertex="1">
                    <mxGeometry x="21" y="150" width="120" height="20" as="geometry"/>
                </mxCell>
                <mxCell id="624" value="Asignar Categoría" style="ellipse;whiteSpace=wrap;html=1;" vertex="1" parent="11">
                    <mxGeometry x="20" y="76" width="120" height="20" as="geometry"/>
                </mxCell>
                <mxCell id="625" value="Asignar Prioridad" style="ellipse;whiteSpace=wrap;html=1;" vertex="1" parent="11">
                    <mxGeometry x="19" y="100" width="120" height="20" as="geometry"/>
                </mxCell>
                <mxCell id="33" value="MÓDULO SERVICIOS" style="swimlane;fontFamily=Helvetica;fontStyle=0;startSize=23;" parent="1" vertex="1">
                    <mxGeometry x="269" y="502" width="160" height="175" as="geometry"/>
                </mxCell>
                <mxCell id="47" value="Listar Servicios" style="ellipse;whiteSpace=wrap;html=1;" parent="33" vertex="1">
                    <mxGeometry x="26" y="114" width="110" height="16" as="geometry"/>
                </mxCell>
                <mxCell id="QgEqirpfORXwnhPlDMqE-301" value="Buscar Servicio" style="ellipse;whiteSpace=wrap;html=1;" parent="33" vertex="1">
                    <mxGeometry x="26" y="136" width="112" height="14" as="geometry"/>
                </mxCell>
                <mxCell id="364" value="ABM Categoria" style="ellipse;whiteSpace=wrap;html=1;" parent="33" vertex="1">
                    <mxGeometry x="23" y="46.5" width="117" height="19.5" as="geometry"/>
                </mxCell>
                <mxCell id="365" value="ABM Nivel Actuación" style="ellipse;whiteSpace=wrap;html=1;" parent="33" vertex="1">
                    <mxGeometry x="20" y="91" width="120" height="17" as="geometry"/>
                </mxCell>
                <mxCell id="43" value="MÓDULO ACTIVOS" style="swimlane;fontFamily=Helvetica;fontStyle=0" parent="1" vertex="1">
                    <mxGeometry x="269" y="693" width="160" height="123" as="geometry"/>
                </mxCell>
                <mxCell id="QgEqirpfORXwnhPlDMqE-302" value="Buscar Activo" style="ellipse;whiteSpace=wrap;html=1;" parent="43" vertex="1">
                    <mxGeometry x="29" y="78.5" width="110" height="17" as="geometry"/>
                </mxCell>
                <mxCell id="378" value="Asignar Tipo Activo" style="ellipse;whiteSpace=wrap;html=1;" parent="43" vertex="1">
                    <mxGeometry x="30" y="100" width="109" height="16" as="geometry"/>
                </mxCell>
                <mxCell id="58" value="MÓDULO PERSONAS" style="swimlane;fontFamily=Helvetica;fontStyle=0" parent="1" vertex="1">
                    <mxGeometry x="640" y="872" width="160" height="130" as="geometry"/>
                </mxCell>
                <mxCell id="61" value="ABM Persona" style="ellipse;whiteSpace=wrap;html=1;" parent="58" vertex="1">
                    <mxGeometry x="33" y="27" width="111" height="20" as="geometry"/>
                </mxCell>
                <mxCell id="66" value="Listar Personas" style="ellipse;whiteSpace=wrap;html=1;" parent="58" vertex="1">
                    <mxGeometry x="30" y="53" width="110" height="22" as="geometry"/>
                </mxCell>
                <mxCell id="69" value="Asignar Tipo Persona" style="ellipse;whiteSpace=wrap;html=1;" parent="58" vertex="1">
                    <mxGeometry x="20.5" y="105" width="128.5" height="20" as="geometry"/>
                </mxCell>
                <mxCell id="QgEqirpfORXwnhPlDMqE-303" value="Buscar Persona" style="ellipse;whiteSpace=wrap;html=1;" parent="58" vertex="1">
                    <mxGeometry x="23.5" y="79" width="119.5" height="18" as="geometry"/>
                </mxCell>
                <mxCell id="71" value="MÓDULO ESTADÍSTICAS" style="swimlane;fontFamily=Helvetica;startSize=23;fontStyle=0" parent="1" vertex="1">
                    <mxGeometry x="640" y="198" width="160" height="179" as="geometry">
                        <mxRectangle x="650" y="84" width="170" height="23" as="alternateBounds"/>
                    </mxGeometry>
                </mxCell>
                <mxCell id="77" value="Cantidad Incidencias" style="ellipse;whiteSpace=wrap;html=1;fontFamily=Helvetica;" parent="71" vertex="1">
                    <mxGeometry x="29" y="28" width="110" height="35" as="geometry"/>
                </mxCell>
                <mxCell id="264" value="Incidencias por Estado" style="ellipse;whiteSpace=wrap;html=1;fontFamily=Helvetica;" parent="71" vertex="1">
                    <mxGeometry x="31" y="103" width="107.5" height="35" as="geometry"/>
                </mxCell>
                <mxCell id="255" value="Incidencias por Periodo" style="ellipse;whiteSpace=wrap;html=1;fontFamily=Helvetica;" parent="71" vertex="1">
                    <mxGeometry x="30" y="67" width="110" height="30" as="geometry"/>
                </mxCell>
                <mxCell id="72" value="MÓDULO CONFIGURACIONES" style="swimlane;fontFamily=Helvetica;startSize=23;fontStyle=0" parent="1" vertex="1">
                    <mxGeometry x="259" y="840" width="180" height="170" as="geometry"/>
                </mxCell>
                <mxCell id="74" value="Auditoría" style="ellipse;whiteSpace=wrap;html=1;fontFamily=Helvetica;" parent="72" vertex="1">
                    <mxGeometry x="31" y="145" width="120" height="17" as="geometry"/>
                </mxCell>
                <mxCell id="286" value="Solicitar Encuesta-Calificación" style="ellipse;whiteSpace=wrap;html=1;" parent="72" vertex="1">
                    <mxGeometry x="31" y="82" width="120" height="30" as="geometry"/>
                </mxCell>
                <mxCell id="73" value="ABM Usuario" style="ellipse;whiteSpace=wrap;html=1;fontFamily=Helvetica;" parent="72" vertex="1">
                    <mxGeometry x="30" y="29" width="120" height="22" as="geometry"/>
                </mxCell>
                <mxCell id="288" value="Anunciar" style="ellipse;whiteSpace=wrap;html=1;" parent="72" vertex="1">
                    <mxGeometry x="32" y="57" width="120" height="19" as="geometry"/>
                </mxCell>
                <mxCell id="344" value="Asignar Permiso-Rol" style="ellipse;whiteSpace=wrap;html=1;fontFamily=Helvetica;" parent="72" vertex="1">
                    <mxGeometry x="27" y="117" width="130" height="22" as="geometry"/>
                </mxCell>
                <mxCell id="97" style="edgeStyle=none;html=1;entryX=0;entryY=0.5;entryDx=0;entryDy=0;fontFamily=Helvetica;endArrow=none;endFill=0;exitX=1;exitY=0.3333333333333333;exitDx=0;exitDy=0;exitPerimeter=0;" parent="1" source="79" target="354" edge="1">
                    <mxGeometry relative="1" as="geometry">
                        <mxPoint x="90" y="328" as="sourcePoint"/>
                    </mxGeometry>
                </mxCell>
                <mxCell id="98" style="edgeStyle=none;html=1;entryX=0;entryY=0.5;entryDx=0;entryDy=0;fontFamily=Helvetica;endArrow=none;endFill=0;exitX=1;exitY=0.3333333333333333;exitDx=0;exitDy=0;exitPerimeter=0;" parent="1" source="79" target="355" edge="1">
                    <mxGeometry relative="1" as="geometry">
                        <mxPoint x="730" y="302" as="sourcePoint"/>
                    </mxGeometry>
                </mxCell>
                <mxCell id="100" style="edgeStyle=none;html=1;exitX=1;exitY=0.3333333333333333;exitDx=0;exitDy=0;exitPerimeter=0;entryX=0;entryY=0.5;entryDx=0;entryDy=0;fontFamily=Helvetica;endArrow=none;endFill=0;" parent="1" source="79" target="17" edge="1">
                    <mxGeometry relative="1" as="geometry"/>
                </mxCell>
                <mxCell id="101" style="edgeStyle=none;html=1;exitX=1;exitY=0.3333333333333333;exitDx=0;exitDy=0;exitPerimeter=0;entryX=0;entryY=0.5;entryDx=0;entryDy=0;fontFamily=Helvetica;endArrow=none;endFill=0;" parent="1" source="79" target="QgEqirpfORXwnhPlDMqE-298" edge="1">
                    <mxGeometry relative="1" as="geometry">
                        <mxPoint x="276" y="267" as="targetPoint"/>
                    </mxGeometry>
                </mxCell>
                <mxCell id="361" style="edgeStyle=none;html=1;exitX=1;exitY=0.3333333333333333;exitDx=0;exitDy=0;exitPerimeter=0;entryX=0;entryY=0.5;entryDx=0;entryDy=0;endArrow=none;endFill=0;" parent="1" source="79" target="359" edge="1">
                    <mxGeometry relative="1" as="geometry"/>
                </mxCell>
                <mxCell id="583" style="edgeStyle=none;html=1;exitX=1;exitY=0.3333333333333333;exitDx=0;exitDy=0;exitPerimeter=0;entryX=0;entryY=0.5;entryDx=0;entryDy=0;startArrow=none;startFill=0;endArrow=none;endFill=0;" parent="1" source="79" target="47" edge="1">
                    <mxGeometry relative="1" as="geometry"/>
                </mxCell>
                <mxCell id="584" style="edgeStyle=none;html=1;exitX=1;exitY=0.3333333333333333;exitDx=0;exitDy=0;exitPerimeter=0;entryX=0;entryY=0.5;entryDx=0;entryDy=0;startArrow=none;startFill=0;endArrow=none;endFill=0;" parent="1" source="79" target="QgEqirpfORXwnhPlDMqE-301" edge="1">
                    <mxGeometry relative="1" as="geometry"/>
                </mxCell>
                <mxCell id="586" style="edgeStyle=none;html=1;exitX=1;exitY=0.3333333333333333;exitDx=0;exitDy=0;exitPerimeter=0;entryX=0;entryY=0.5;entryDx=0;entryDy=0;startArrow=none;startFill=0;endArrow=none;endFill=0;" parent="1" source="79" target="37" edge="1">
                    <mxGeometry relative="1" as="geometry"/>
                </mxCell>
                <mxCell id="587" style="edgeStyle=none;html=1;exitX=1;exitY=0.3333333333333333;exitDx=0;exitDy=0;exitPerimeter=0;entryX=0;entryY=0.5;entryDx=0;entryDy=0;startArrow=none;startFill=0;endArrow=none;endFill=0;" parent="1" source="79" target="QgEqirpfORXwnhPlDMqE-302" edge="1">
                    <mxGeometry relative="1" as="geometry"/>
                </mxCell>
                <mxCell id="588" style="edgeStyle=none;html=1;exitX=1;exitY=0.3333333333333333;exitDx=0;exitDy=0;exitPerimeter=0;entryX=0;entryY=0.5;entryDx=0;entryDy=0;startArrow=none;startFill=0;endArrow=none;endFill=0;" parent="1" source="79" target="288" edge="1">
                    <mxGeometry relative="1" as="geometry"/>
                </mxCell>
                <mxCell id="589" style="edgeStyle=none;html=1;exitX=1;exitY=0.3333333333333333;exitDx=0;exitDy=0;exitPerimeter=0;entryX=0;entryY=0.5;entryDx=0;entryDy=0;startArrow=none;startFill=0;endArrow=none;endFill=0;" parent="1" source="79" target="286" edge="1">
                    <mxGeometry relative="1" as="geometry"/>
                </mxCell>
                <mxCell id="607" style="edgeStyle=none;html=1;exitX=1;exitY=0.3333333333333333;exitDx=0;exitDy=0;exitPerimeter=0;entryX=0;entryY=0.5;entryDx=0;entryDy=0;startArrow=none;startFill=0;endArrow=none;endFill=0;" parent="1" source="79" target="73" edge="1">
                    <mxGeometry relative="1" as="geometry"/>
                </mxCell>
                <mxCell id="630" style="edgeStyle=none;html=1;exitX=1;exitY=0.3333333333333333;exitDx=0;exitDy=0;exitPerimeter=0;entryX=0;entryY=0.5;entryDx=0;entryDy=0;endArrow=none;endFill=0;" edge="1" parent="1" source="79" target="626">
                    <mxGeometry relative="1" as="geometry"/>
                </mxCell>
                <mxCell id="79" value="Rol&lt;br&gt;Nivel Actuación" style="shape=umlActor;verticalLabelPosition=bottom;verticalAlign=top;html=1;outlineConnect=0;" parent="1" vertex="1">
                    <mxGeometry x="43" y="529" width="34" height="66" as="geometry"/>
                </mxCell>
                <mxCell id="93" value="Auditor" style="shape=umlActor;verticalLabelPosition=bottom;verticalAlign=top;html=1;outlineConnect=0;" parent="1" vertex="1">
                    <mxGeometry x="42" y="934" width="34" height="59" as="geometry"/>
                </mxCell>
                <mxCell id="8" value="Listar Incidencias" style="ellipse;whiteSpace=wrap;html=1;" parent="1" vertex="1">
                    <mxGeometry x="292" y="66" width="120" height="20" as="geometry"/>
                </mxCell>
                <mxCell id="5" value="ABM Incidencia" style="ellipse;whiteSpace=wrap;html=1;" parent="1" vertex="1">
                    <mxGeometry x="292" y="41" width="120" height="20" as="geometry"/>
                </mxCell>
                <mxCell id="10" value="Calificar" style="ellipse;whiteSpace=wrap;html=1;" parent="1" vertex="1">
                    <mxGeometry x="292" y="117" width="120" height="17" as="geometry"/>
                </mxCell>
                <mxCell id="34" value="ABM Servicio" style="ellipse;whiteSpace=wrap;html=1;" parent="1" vertex="1">
                    <mxGeometry x="290" y="529" width="119" height="17" as="geometry"/>
                </mxCell>
                <mxCell id="44" value="ABM Activo" style="ellipse;whiteSpace=wrap;html=1;" parent="1" vertex="1">
                    <mxGeometry x="298" y="720.5" width="110" height="20" as="geometry"/>
                </mxCell>
                <mxCell id="37" value="Listar Activos" style="ellipse;whiteSpace=wrap;html=1;" parent="1" vertex="1">
                    <mxGeometry x="298" y="745.5" width="110" height="21" as="geometry"/>
                </mxCell>
                <mxCell id="42" value="Calificar" style="ellipse;whiteSpace=wrap;html=1;" parent="1" vertex="1">
                    <mxGeometry x="294" y="655" width="112" height="18" as="geometry"/>
                </mxCell>
                <mxCell id="14" value="ABM Solicitud" style="ellipse;whiteSpace=wrap;html=1;" parent="1" vertex="1">
                    <mxGeometry x="289" y="189" width="120" height="20" as="geometry"/>
                </mxCell>
                <mxCell id="353" value="Cerrar Solicitud" style="ellipse;whiteSpace=wrap;html=1;" parent="1" vertex="1">
                    <mxGeometry x="291" y="335" width="120" height="20" as="geometry"/>
                </mxCell>
                <mxCell id="354" value="Siguimiento Solicitud" style="ellipse;whiteSpace=wrap;html=1;" parent="1" vertex="1">
                    <mxGeometry x="289.5" y="411" width="120" height="21" as="geometry"/>
                </mxCell>
                <mxCell id="359" value="Atender Solicitud" style="ellipse;whiteSpace=wrap;html=1;" parent="1" vertex="1">
                    <mxGeometry x="289.5" y="359" width="120" height="23" as="geometry"/>
                </mxCell>
                <mxCell id="QgEqirpfORXwnhPlDMqE-298" value="Buscar Solicitud" style="ellipse;whiteSpace=wrap;html=1;" parent="1" vertex="1">
                    <mxGeometry x="289" y="460" width="120" height="20" as="geometry"/>
                </mxCell>
                <mxCell id="17" value="Listar Solicitudes" style="ellipse;whiteSpace=wrap;html=1;" parent="1" vertex="1">
                    <mxGeometry x="289" y="436" width="120" height="20" as="geometry"/>
                </mxCell>
                <mxCell id="355" value="Derivar Solicitud" style="ellipse;whiteSpace=wrap;html=1;" parent="1" vertex="1">
                    <mxGeometry x="290" y="386" width="120" height="20" as="geometry"/>
                </mxCell>
                <mxCell id="375" value="ABM Prioridad" style="ellipse;whiteSpace=wrap;html=1;" parent="1" vertex="1">
                    <mxGeometry x="291" y="572" width="120" height="17" as="geometry"/>
                </mxCell>
                <mxCell id="481" style="edgeStyle=none;html=1;exitX=0;exitY=0.3333333333333333;exitDx=0;exitDy=0;exitPerimeter=0;entryX=1;entryY=0.5;entryDx=0;entryDy=0;startArrow=none;startFill=0;endArrow=none;endFill=0;" parent="1" source="480" target="8" edge="1">
                    <mxGeometry relative="1" as="geometry"/>
                </mxCell>
                <mxCell id="482" style="edgeStyle=none;html=1;exitX=0;exitY=0.3333333333333333;exitDx=0;exitDy=0;exitPerimeter=0;entryX=1;entryY=0.5;entryDx=0;entryDy=0;startArrow=none;startFill=0;endArrow=none;endFill=0;" parent="1" source="480" target="QgEqirpfORXwnhPlDMqE-285" edge="1">
                    <mxGeometry relative="1" as="geometry"/>
                </mxCell>
                <mxCell id="483" style="edgeStyle=none;html=1;exitX=0;exitY=0.3333333333333333;exitDx=0;exitDy=0;exitPerimeter=0;startArrow=none;startFill=0;endArrow=none;endFill=0;entryX=1;entryY=0.5;entryDx=0;entryDy=0;" parent="1" source="480" target="10" edge="1">
                    <mxGeometry relative="1" as="geometry">
                        <mxPoint x="570" y="153" as="targetPoint"/>
                    </mxGeometry>
                </mxCell>
                <mxCell id="484" style="edgeStyle=none;html=1;exitX=0;exitY=0.3333333333333333;exitDx=0;exitDy=0;exitPerimeter=0;entryX=1;entryY=0.5;entryDx=0;entryDy=0;startArrow=none;startFill=0;endArrow=none;endFill=0;" parent="1" source="480" target="373" edge="1">
                    <mxGeometry relative="1" as="geometry"/>
                </mxCell>
                <mxCell id="485" style="edgeStyle=none;html=1;exitX=0;exitY=0.3333333333333333;exitDx=0;exitDy=0;exitPerimeter=0;entryX=1;entryY=0.5;entryDx=0;entryDy=0;startArrow=none;startFill=0;endArrow=none;endFill=0;" parent="1" source="480" target="353" edge="1">
                    <mxGeometry relative="1" as="geometry"/>
                </mxCell>
                <mxCell id="495" style="edgeStyle=none;html=1;exitX=0;exitY=0.3333333333333333;exitDx=0;exitDy=0;exitPerimeter=0;entryX=1;entryY=0.5;entryDx=0;entryDy=0;startArrow=none;startFill=0;endArrow=none;endFill=0;" parent="1" source="480" target="14" edge="1">
                    <mxGeometry relative="1" as="geometry"/>
                </mxCell>
                <mxCell id="594" style="edgeStyle=none;html=1;entryX=1;entryY=0.5;entryDx=0;entryDy=0;startArrow=none;startFill=0;endArrow=none;endFill=0;exitX=0;exitY=0.3333333333333333;exitDx=0;exitDy=0;exitPerimeter=0;" parent="1" source="480" edge="1">
                    <mxGeometry relative="1" as="geometry">
                        <mxPoint x="566" y="203" as="sourcePoint"/>
                        <mxPoint x="405.00000000000125" y="623" as="targetPoint"/>
                    </mxGeometry>
                </mxCell>
                <mxCell id="595" style="edgeStyle=none;html=1;exitX=0;exitY=0.3333333333333333;exitDx=0;exitDy=0;exitPerimeter=0;entryX=1;entryY=0.5;entryDx=0;entryDy=0;startArrow=none;startFill=0;endArrow=none;endFill=0;" parent="1" source="480" target="QgEqirpfORXwnhPlDMqE-301" edge="1">
                    <mxGeometry relative="1" as="geometry"/>
                </mxCell>
                <mxCell id="596" style="edgeStyle=none;html=1;exitX=0;exitY=0.3333333333333333;exitDx=0;exitDy=0;exitPerimeter=0;entryX=1;entryY=0.5;entryDx=0;entryDy=0;startArrow=none;startFill=0;endArrow=none;endFill=0;" parent="1" source="480" target="42" edge="1">
                    <mxGeometry relative="1" as="geometry"/>
                </mxCell>
                <mxCell id="620" style="edgeStyle=none;html=1;exitX=0;exitY=0.3333333333333333;exitDx=0;exitDy=0;exitPerimeter=0;entryX=1;entryY=0.5;entryDx=0;entryDy=0;endArrow=none;endFill=0;" edge="1" parent="1" source="480" target="619">
                    <mxGeometry relative="1" as="geometry"/>
                </mxCell>
                <mxCell id="627" style="edgeStyle=none;html=1;exitX=0;exitY=0.3333333333333333;exitDx=0;exitDy=0;exitPerimeter=0;entryX=1;entryY=0.5;entryDx=0;entryDy=0;endArrow=none;endFill=0;" edge="1" parent="1" source="480" target="624">
                    <mxGeometry relative="1" as="geometry"/>
                </mxCell>
                <mxCell id="628" style="edgeStyle=none;html=1;exitX=0;exitY=0.3333333333333333;exitDx=0;exitDy=0;exitPerimeter=0;entryX=1;entryY=0.5;entryDx=0;entryDy=0;endArrow=none;endFill=0;" edge="1" parent="1" source="480" target="625">
                    <mxGeometry relative="1" as="geometry"/>
                </mxCell>
                <mxCell id="633" style="edgeStyle=none;html=1;exitX=0;exitY=0.3333333333333333;exitDx=0;exitDy=0;exitPerimeter=0;entryX=1;entryY=0.5;entryDx=0;entryDy=0;endArrow=none;endFill=0;" edge="1" parent="1" source="480" target="354">
                    <mxGeometry relative="1" as="geometry"/>
                </mxCell>
                <mxCell id="634" style="edgeStyle=none;html=1;exitX=0;exitY=0.3333333333333333;exitDx=0;exitDy=0;exitPerimeter=0;entryX=1;entryY=0.5;entryDx=0;entryDy=0;endArrow=none;endFill=0;" edge="1" parent="1" source="480" target="17">
                    <mxGeometry relative="1" as="geometry"/>
                </mxCell>
                <mxCell id="635" style="edgeStyle=none;html=1;exitX=0;exitY=0.3333333333333333;exitDx=0;exitDy=0;exitPerimeter=0;entryX=1;entryY=0.5;entryDx=0;entryDy=0;endArrow=none;endFill=0;" edge="1" parent="1" source="480" target="QgEqirpfORXwnhPlDMqE-298">
                    <mxGeometry relative="1" as="geometry"/>
                </mxCell>
                <mxCell id="480" value="Cliente" style="shape=umlActor;verticalLabelPosition=bottom;verticalAlign=top;html=1;outlineConnect=0;" parent="1" vertex="1">
                    <mxGeometry x="564" y="301" width="30" height="60" as="geometry"/>
                </mxCell>
                <mxCell id="489" style="edgeStyle=none;html=1;exitX=1;exitY=0.3333333333333333;exitDx=0;exitDy=0;exitPerimeter=0;startArrow=none;startFill=0;endArrow=none;endFill=0;entryX=0;entryY=0.5;entryDx=0;entryDy=0;" parent="1" source="487" target="5" edge="1">
                    <mxGeometry relative="1" as="geometry">
                        <mxPoint x="320" y="46" as="targetPoint"/>
                    </mxGeometry>
                </mxCell>
                <mxCell id="582" style="edgeStyle=none;html=1;startArrow=none;startFill=0;endArrow=block;endFill=0;entryX=0.5;entryY=0;entryDx=0;entryDy=0;entryPerimeter=0;" parent="1" target="79" edge="1">
                    <mxGeometry relative="1" as="geometry">
                        <mxPoint x="61" y="109" as="sourcePoint"/>
                        <mxPoint x="62" y="320" as="targetPoint"/>
                    </mxGeometry>
                </mxCell>
                <mxCell id="487" value="Administrador&lt;br&gt;" style="shape=umlActor;verticalLabelPosition=bottom;verticalAlign=top;html=1;outlineConnect=0;" parent="1" vertex="1">
                    <mxGeometry x="44" y="31" width="30" height="60" as="geometry"/>
                </mxCell>
                <mxCell id="265" value="Frecuncia Incidencia" style="ellipse;whiteSpace=wrap;html=1;fontFamily=Helvetica;" parent="1" vertex="1">
                    <mxGeometry x="670.5" y="338.5" width="109.5" height="31" as="geometry"/>
                </mxCell>
                <mxCell id="569" style="edgeStyle=none;html=1;startArrow=none;startFill=0;endArrow=none;endFill=0;exitX=0;exitY=0.5;exitDx=0;exitDy=0;entryX=1;entryY=1;entryDx=0;entryDy=0;entryPerimeter=0;" parent="1" source="74" target="93" edge="1">
                    <mxGeometry relative="1" as="geometry">
                        <mxPoint x="300" y="994" as="sourcePoint"/>
                        <mxPoint x="70" y="974" as="targetPoint"/>
                    </mxGeometry>
                </mxCell>
                <mxCell id="591" style="edgeStyle=none;html=1;exitX=0.5;exitY=0;exitDx=0;exitDy=0;exitPerimeter=0;entryX=0.5;entryY=1;entryDx=0;entryDy=0;startArrow=none;startFill=0;endArrow=none;endFill=0;" parent="1" source="590" target="71" edge="1">
                    <mxGeometry relative="1" as="geometry"/>
                </mxCell>
                <mxCell id="593" style="edgeStyle=none;html=1;startArrow=none;startFill=0;endArrow=none;endFill=0;exitX=0.5;exitY=0.5;exitDx=0;exitDy=0;exitPerimeter=0;entryX=0.5;entryY=0;entryDx=0;entryDy=0;" parent="1" edge="1" target="58">
                    <mxGeometry relative="1" as="geometry">
                        <mxPoint x="720" y="616" as="sourcePoint"/>
                        <mxPoint x="721" y="750" as="targetPoint"/>
                        <Array as="points"/>
                    </mxGeometry>
                </mxCell>
                <mxCell id="597" style="edgeStyle=none;html=1;exitX=0;exitY=0.3333333333333333;exitDx=0;exitDy=0;exitPerimeter=0;startArrow=none;startFill=0;endArrow=none;endFill=0;entryX=1;entryY=0.75;entryDx=0;entryDy=0;" parent="1" source="590" target="33" edge="1">
                    <mxGeometry relative="1" as="geometry">
                        <mxPoint x="440" y="558" as="targetPoint"/>
                    </mxGeometry>
                </mxCell>
                <mxCell id="599" style="edgeStyle=none;html=1;exitX=0;exitY=0.3333333333333333;exitDx=0;exitDy=0;exitPerimeter=0;entryX=1;entryY=0;entryDx=0;entryDy=0;startArrow=none;startFill=0;endArrow=none;endFill=0;" parent="1" source="590" target="43" edge="1">
                    <mxGeometry relative="1" as="geometry"/>
                </mxCell>
                <mxCell id="600" style="edgeStyle=none;html=1;exitX=0;exitY=0.3333333333333333;exitDx=0;exitDy=0;exitPerimeter=0;startArrow=none;startFill=0;endArrow=none;endFill=0;entryX=1;entryY=0.5;entryDx=0;entryDy=0;" parent="1" source="590" edge="1" target="344">
                    <mxGeometry relative="1" as="geometry">
                        <mxPoint x="440" y="950" as="targetPoint"/>
                        <Array as="points"/>
                    </mxGeometry>
                </mxCell>
                <mxCell id="610" style="edgeStyle=none;html=1;exitX=0;exitY=0.3333333333333333;exitDx=0;exitDy=0;exitPerimeter=0;entryX=0.75;entryY=0.1;entryDx=0;entryDy=0;entryPerimeter=0;startArrow=none;startFill=0;endArrow=block;endFill=0;" parent="1" source="590" target="609" edge="1">
                    <mxGeometry relative="1" as="geometry">
                        <mxPoint x="705" y="439" as="sourcePoint"/>
                    </mxGeometry>
                </mxCell>
                <mxCell id="590" value="Administrador&lt;br&gt;" style="shape=umlActor;verticalLabelPosition=bottom;verticalAlign=top;html=1;outlineConnect=0;" parent="1" vertex="1">
                    <mxGeometry x="705" y="561" width="30" height="60" as="geometry"/>
                </mxCell>
                <mxCell id="612" style="edgeStyle=none;html=1;startArrow=none;startFill=0;endArrow=none;endFill=0;entryX=1;entryY=0.5;entryDx=0;entryDy=0;exitX=0;exitY=0.3333333333333333;exitDx=0;exitDy=0;exitPerimeter=0;" parent="1" target="73" edge="1" source="609">
                    <mxGeometry relative="1" as="geometry">
                        <mxPoint x="565" y="625" as="sourcePoint"/>
                        <mxPoint x="400.0000000000002" y="791" as="targetPoint"/>
                    </mxGeometry>
                </mxCell>
                <mxCell id="614" style="edgeStyle=none;html=1;entryX=1;entryY=0.5;entryDx=0;entryDy=0;startArrow=none;startFill=0;endArrow=none;endFill=0;exitX=0;exitY=0.3333333333333333;exitDx=0;exitDy=0;exitPerimeter=0;" parent="1" target="286" edge="1" source="609">
                    <mxGeometry relative="1" as="geometry">
                        <mxPoint x="565" y="625" as="sourcePoint"/>
                        <mxPoint x="402" y="876" as="targetPoint"/>
                    </mxGeometry>
                </mxCell>
                <mxCell id="615" style="edgeStyle=none;html=1;startArrow=none;startFill=0;endArrow=none;endFill=0;entryX=1;entryY=0.5;entryDx=0;entryDy=0;exitX=0;exitY=0.3333333333333333;exitDx=0;exitDy=0;exitPerimeter=0;" parent="1" target="288" edge="1" source="609">
                    <mxGeometry relative="1" as="geometry">
                        <mxPoint x="565" y="625" as="sourcePoint"/>
                        <mxPoint x="399.99999999999864" y="845.5" as="targetPoint"/>
                    </mxGeometry>
                </mxCell>
                <mxCell id="621" style="edgeStyle=none;html=1;exitX=0;exitY=0.3333333333333333;exitDx=0;exitDy=0;exitPerimeter=0;entryX=1;entryY=0.5;entryDx=0;entryDy=0;endArrow=none;endFill=0;" edge="1" parent="1" source="609" target="37">
                    <mxGeometry relative="1" as="geometry"/>
                </mxCell>
                <mxCell id="622" style="edgeStyle=none;html=1;exitX=0;exitY=0.3333333333333333;exitDx=0;exitDy=0;exitPerimeter=0;entryX=1;entryY=0.5;entryDx=0;entryDy=0;endArrow=none;endFill=0;" edge="1" parent="1" source="609" target="QgEqirpfORXwnhPlDMqE-302">
                    <mxGeometry relative="1" as="geometry"/>
                </mxCell>
                <mxCell id="609" value="Cliente" style="shape=umlActor;verticalLabelPosition=bottom;verticalAlign=top;html=1;outlineConnect=0;" parent="1" vertex="1">
                    <mxGeometry x="564" y="641.5" width="30" height="60" as="geometry"/>
                </mxCell>
                <mxCell id="617" style="edgeStyle=none;html=1;exitX=1;exitY=0.3333333333333333;exitDx=0;exitDy=0;exitPerimeter=0;startArrow=none;startFill=0;endArrow=none;endFill=0;entryX=0;entryY=0.5;entryDx=0;entryDy=0;" parent="1" source="616" target="QgEqirpfORXwnhPlDMqE-303" edge="1">
                    <mxGeometry relative="1" as="geometry">
                        <mxPoint x="640" y="991" as="targetPoint"/>
                    </mxGeometry>
                </mxCell>
                <mxCell id="618" style="edgeStyle=none;html=1;exitX=1;exitY=0.3333333333333333;exitDx=0;exitDy=0;exitPerimeter=0;entryX=0;entryY=0.5;entryDx=0;entryDy=0;startArrow=none;startFill=0;endArrow=none;endFill=0;" parent="1" source="616" target="66" edge="1">
                    <mxGeometry relative="1" as="geometry"/>
                </mxCell>
                <mxCell id="616" value="Rol&lt;br&gt;Nivel Actuación" style="shape=umlActor;verticalLabelPosition=bottom;verticalAlign=top;html=1;outlineConnect=0;" parent="1" vertex="1">
                    <mxGeometry x="562" y="914" width="34" height="66" as="geometry"/>
                </mxCell>
                <mxCell id="619" value="Asignar Servicio" style="ellipse;whiteSpace=wrap;html=1;" vertex="1" parent="1">
                    <mxGeometry x="289" y="213" width="120" height="20" as="geometry"/>
                </mxCell>
                <mxCell id="626" value="Asignar Nivel Actuación" style="ellipse;whiteSpace=wrap;html=1;" vertex="1" parent="1">
                    <mxGeometry x="280" y="285" width="140" height="22" as="geometry"/>
                </mxCell>
            </root>
        </mxGraphModel>
    </diagram>
</mxfile>